<?xml version="1.0" encoding="UTF-8"?>
<svg id="Layer_1" data-name="Layer 1" xmlns="http://www.w3.org/2000/svg" xmlns:xlink="http://www.w3.org/1999/xlink" viewBox="0 0 1000 1000">
  <defs>
    <style>
      .cls-1 {
        fill-rule: evenodd;
      }

      .cls-1, .cls-2 {
        fill: #8b4513;
      }

      .cls-1, .cls-2, .cls-3 {
        stroke-width: 0px;
      }

      .cls-3 {
        fill: none;
      }

      .cls-4 {
        clip-path: url(#clippath-1);
      }

      .cls-5 {
        clip-path: url(#clippath);
      }
    </style>
    <clipPath id="clippath">
      <rect class="cls-3" x="158.23" y="522.45" width="559.33" height="427.98"/>
    </clipPath>
    <clipPath id="clippath-1">
      <rect class="cls-3" x="255.84" y="49.57" width="382.56" height="544.16"/>
    </clipPath>
  </defs>
  <rect class="cls-3" x="-100" y="-100" width="1200" height="1200"/>
  <rect class="cls-3" x="-100" y="-100" width="1200" height="1200"/>
  <g>
    <g class="cls-5">
      <path class="cls-2" d="m160.27,522.48h551.98l5.11,5.11c.95,113.23-27.28,226.63-88.68,322.48-9.56,14.83-70.49,95.05-82.13,98.08-10.69,2.71-208.62,2.56-219.29,0-16.43-3.82-74.16-83.09-85.01-100.95-58.68-96.65-87.55-211.97-82.13-324.56l.15-.16Z"/>
    </g>
    <path class="cls-2" d="m732.51,542.89c80.54-.79,144.34,59.49,137.32,141.63-7.66,87.08-117.23,150.87-193.15,101.75,4.79-4.46,17.07-38.11,18.82-39.24,4.95-3.03,37.48,22.81,83.57-5.1,68.42-41.46,49.45-146.56-47.2-154.7l.79-44.34h-.15Z"/>
    <g class="cls-4">
      <path class="cls-1" d="m500.98,49.57s-20.23,87.97,30.36,166.6c50.59,78.63,223.42,233.54-21.02,377.57,0,0,51.76-73.56,25.7-123.78-26.08-50.21-82.14-87.57-72.8-166.2,0,0-73.95,30.76-41.27,170.09,0,0-41.66-15.17-59.17-56.24,0,0-25.89,80.56,21.59,174.77,0,0-251.07-119.72-48.64-352.25,0,0,4.28,75.91,34.25,96.94,0,0-49.45-205.51,130.98-287.46l.02-.05Z"/>
    </g>
  </g>
</svg>